<?xml version="1.0" encoding="UTF-8" standalone="no"?>
<svg
   xmlns:dc="http://purl.org/dc/elements/1.1/"
   xmlns:cc="http://creativecommons.org/ns#"
   xmlns:rdf="http://www.w3.org/1999/02/22-rdf-syntax-ns#"
   xmlns:svg="http://www.w3.org/2000/svg"
   xmlns="http://www.w3.org/2000/svg"
   xmlns:sodipodi="http://sodipodi.sourceforge.net/DTD/sodipodi-0.dtd"
   xmlns:inkscape="http://www.inkscape.org/namespaces/inkscape"
   inkscape:version="1.0beta1 (32d4812, 2019-09-19)"
   sodipodi:docname="email-icon.svg"
   id="svg845"
   version="1.1"
   height="16"
   width="16">
  <metadata
     id="metadata851">
    <rdf:RDF>
      <cc:Work
         rdf:about="">
        <dc:format>image/svg+xml</dc:format>
        <dc:type
           rdf:resource="http://purl.org/dc/dcmitype/StillImage" />
      </cc:Work>
    </rdf:RDF>
  </metadata>
  <defs
     id="defs849" />
  <sodipodi:namedview
     inkscape:current-layer="svg845"
     inkscape:window-maximized="0"
     inkscape:window-y="23"
     inkscape:window-x="0"
     inkscape:cy="560"
     inkscape:cx="400"
     inkscape:zoom="0.35"
     showgrid="false"
     id="namedview847"
     inkscape:window-height="791"
     inkscape:window-width="1440"
     inkscape:pageshadow="2"
     inkscape:pageopacity="0"
     guidetolerance="10"
     gridtolerance="10"
     objecttolerance="10"
     borderopacity="1"
     inkscape:document-rotation="0"
     bordercolor="#666666"
     pagecolor="#ffffff" />
  <title
     id="title833" />
  <g
     id="g838">
    <title
       id="title835">background</title>
    <rect
       x="-1"
       y="-1"
       width="582"
       height="402"
       id="canvas_background"
       fill="none" />
  </g>
  <g
     style="fill:#cc5800;fill-opacity:1"
     id="g843">
    <title
       style="fill-opacity:1.0"
       id="title840">Layer 1</title>
    <path
       style="fill:#cc5800;fill-opacity:1"
       d="m9.73196,8.48454l4.9498,4.24268c-0.18008,0.16824 -0.42226,0.27278 -0.6886,0.27278l-11.98632,0c-0.26765,0 -0.5106,-0.10294 -0.69077,-0.27092l4.95197,-4.24454l1.73196,1.51546l1.73196,-1.51546zm-1.73196,0.51546l-6.68176,-5.72722c0.18008,-0.16824 0.42226,-0.27278 0.6886,-0.27278l11.98632,0c0.26765,0 0.5106,0.10294 0.69077,0.27092l-6.68393,5.72908zm7,3.18561l-4.83264,-4.10675l4.83264,-4.20344l0,8.31019l0,0zm-14,0l0,-8.30746l4.83264,4.20071l-4.83264,4.10675l0,0zm0,0"
       id="Shape"
       fill="#565656" />
  </g>
</svg>
