<?xml version="1.0" encoding="UTF-8" standalone="no"?>
<svg
   xmlns:osb="http://www.openswatchbook.org/uri/2009/osb"
   xmlns:dc="http://purl.org/dc/elements/1.1/"
   xmlns:cc="http://creativecommons.org/ns#"
   xmlns:rdf="http://www.w3.org/1999/02/22-rdf-syntax-ns#"
   xmlns:svg="http://www.w3.org/2000/svg"
   xmlns="http://www.w3.org/2000/svg"
   xmlns:xlink="http://www.w3.org/1999/xlink"
   xmlns:sodipodi="http://sodipodi.sourceforge.net/DTD/sodipodi-0.dtd"
   xmlns:inkscape="http://www.inkscape.org/namespaces/inkscape"
   sodipodi:docname="LOGO.svg"
   inkscape:version="1.0beta1 (32d4812, 2019-09-19)"
   id="SVGRoot"
   version="1.1"
   viewBox="0 0 800 600"
   height="600"
   width="800">
  <defs
     id="defs4566">
    <linearGradient
       osb:paint="solid"
       id="linearGradient6750">
      <stop
         id="stop6748"
         offset="0"
         style="stop-color:#1a1a1a;stop-opacity:1;" />
    </linearGradient>
    <inkscape:path-effect
       only_selected="false"
       apply_with_weight="true"
       apply_no_weight="true"
       helper_size="0"
       steps="2"
       weight="33.333333"
       is_visible="true"
       id="path-effect5267"
       effect="bspline" />
    <clipPath
       id="clipPath5134"
       clipPathUnits="userSpaceOnUse">
      <use
         height="100%"
         width="100%"
         id="use5136"
         xlink:href="#g5130"
         y="0"
         x="0" />
    </clipPath>
  </defs>
  <sodipodi:namedview
     inkscape:document-rotation="0"
     inkscape:snap-midpoints="true"
     inkscape:snap-smooth-nodes="true"
     showguides="true"
     inkscape:window-maximized="0"
     inkscape:window-y="23"
     inkscape:window-x="474"
     inkscape:window-height="791"
     inkscape:window-width="966"
     showgrid="true"
     inkscape:current-layer="layer1"
     inkscape:document-units="px"
     inkscape:cy="560"
     inkscape:cx="400"
     inkscape:zoom="0.35"
     inkscape:pageshadow="2"
     inkscape:pageopacity="0.0"
     borderopacity="1.0"
     bordercolor="#666666"
     pagecolor="#ffffff"
     id="base">
    <inkscape:grid
       id="grid5209"
       type="xygrid" />
  </sodipodi:namedview>
  <metadata
     id="metadata4569">
    <rdf:RDF>
      <cc:Work
         rdf:about="">
        <dc:format>image/svg+xml</dc:format>
        <dc:type
           rdf:resource="http://purl.org/dc/dcmitype/StillImage" />
        <dc:title />
      </cc:Work>
    </rdf:RDF>
  </metadata>
  <g
     style="display:inline"
     transform="translate(0,-200)"
     id="layer1"
     inkscape:groupmode="layer"
     inkscape:label="Body">
    <g
       style="opacity:1;fill:#cc5803;fill-opacity:1"
       id="g5282">
      <g
         style="fill:#cc5803;fill-opacity:1"
         id="g5132"
         clip-path="url(#clipPath5134)"
         transform="matrix(1.716803,0,0,1.9343956,0,-795.32941)">
        <g
           style="fill:#cc5803;fill-opacity:1"
           inkscape:label="Clip"
           id="g5130" />
      </g>
      <g
         style="fill:#cc5803;fill-opacity:1"
         id="g5252"
         transform="matrix(1.2607902,-0.11609774,0.11030487,1.327003,-96.581761,-72.952964)">
        <path
           inkscape:connector-curvature="0"
           d="m 106.25102,-395.17176 c 0,-79.48418 66.18543,-138.40846 145.66961,-138.40846 79.48418,1e-5 143.53112,61.14577 143.53112,140.62995 0.0132,2.72472 -2.13503,2.90545 -3.65302,2.92896 l -272.01908,0.56731 c -6.09401,0.0897 -10.99886,0.0788 -13.52863,-5.71776 z m 196.05599,234.50275 h -49.52272 -49.52268 c -3.42946,-1e-5 -5.9479,-0.7867 -7.89735,-2.00246 -1.94944,-1.21577 -3.77006,-2.76886 -4.48333,-4.57693 l -72.67484,-184.22262 c -1.38138,-3.50135 4.00144,-6.57939 8.97188,-6.57939 l 251.21267,2e-5 c 4.97043,0 10.35829,3.065 8.97188,6.57937 l -72.67484,184.22262 c -0.71257,1.8063 -2.53387,3.36115 -4.48334,4.57693 -1.94944,1.21576 -4.46789,2.00245 -7.89733,2.00246 z m -74.16284,-302.57991 -5.11255,-19.0803 154.09169,-41.28874 5.11255,19.0803 z m 65.44065,244.22783 -5.11255,-19.0803 154.09169,-41.28874 5.11255,19.0803 z M 436.45399,-764.4678 a 35.556083,35.893676 75.000002 0 1 43.87322,25.05457 35.556083,35.893676 75.000002 0 1 -25.46804,43.6345 35.556083,35.893676 75.000002 0 1 -43.87322,-25.05457 35.556083,35.893676 75.000002 0 1 25.46804,-43.6345 z M 538.705,-382.86181 a 35.556083,35.893676 75.000002 0 1 43.87322,25.05457 35.556083,35.893676 75.000002 0 1 -25.46803,43.63451 35.556083,35.893676 75.000002 0 1 -43.87323,-25.05458 35.556083,35.893676 75.000002 0 1 25.46804,-43.6345 z M 168.14855,-533.064 l 192.61462,-51.61092 102.25101,381.60599 115.56876,-30.96656 -18.40518,-68.68908 c -25.8798,6.93447 -51.72102,-8.11547 -58.49763,-33.40609 -6.7766,-25.29063 8.07759,-51.24487 33.95739,-58.17934 l -18.40518,-68.68908 -59.30559,-221.33148 c -25.39887,6.80561 -51.72102,-8.11547 -58.49763,-33.40609 -6.7766,-25.29063 8.55852,-51.37374 33.95739,-58.17934 l -18.40518,-68.68908 -91.42122,24.49624 -2.80495,0.75158 -88.75771,23.78256 -94.5242,148.0289 z m 36.36148,-78.20167 -9.4067,-35.10627 c -2.41538,-9.01432 -2.67201,-9.97442 -2.47337,-11.05459 0.19864,-1.08016 0.85332,-2.28363 4.88205,-9.11916 4.02873,-6.83551 11.43246,-19.30402 15.4612,-26.13956 4.02874,-6.83554 4.68303,-8.03745 5.57948,-8.79158 0.89644,-0.75414 1.58004,-0.93783 7.0508,-2.40371 l 20.95586,-5.61511 c 5.46777,-1.46508 6.37903,-1.70873 6.96343,-1.35139 0.5844,0.35734 0.8411,1.31522 4.82639,16.1885 l 15.67276,58.49155 c 3.98297,14.86466 4.24011,15.82337 3.91248,16.4254 -0.32763,0.60202 -1.23796,0.84616 -12.6291,3.89841 l -44.65349,11.96486 c -11.39112,3.05224 -12.30245,3.29592 -12.88632,2.93843 -0.58385,-0.35749 -0.84137,-1.31622 -3.25547,-10.32578 z"
           style="opacity:1;fill:#cc5803;fill-opacity:1;stroke-width:1.10881;stroke-miterlimit:4;stroke-dasharray:none"
           transform="rotate(110)"
           id="path5232" />
      </g>
    </g>
  </g>
  <g
     style="display:inline"
     transform="translate(0,-200)"
     inkscape:label="Tank"
     id="layer2"
     inkscape:groupmode="layer" />
</svg>
