<?xml version="1.0" encoding="UTF-8" standalone="no"?>
<svg
   xmlns:dc="http://purl.org/dc/elements/1.1/"
   xmlns:cc="http://creativecommons.org/ns#"
   xmlns:rdf="http://www.w3.org/1999/02/22-rdf-syntax-ns#"
   xmlns:svg="http://www.w3.org/2000/svg"
   xmlns="http://www.w3.org/2000/svg"
   xmlns:sodipodi="http://sodipodi.sourceforge.net/DTD/sodipodi-0.dtd"
   xmlns:inkscape="http://www.inkscape.org/namespaces/inkscape"
   inkscape:version="1.0beta1 (32d4812, 2019-09-19)"
   sodipodi:docname="phone-icon2.svg"
   id="svg843"
   version="1.1"
   height="32"
   width="32">
  <metadata
     id="metadata849">
    <rdf:RDF>
      <cc:Work
         rdf:about="">
        <dc:format>image/svg+xml</dc:format>
        <dc:type
           rdf:resource="http://purl.org/dc/dcmitype/StillImage" />
      </cc:Work>
    </rdf:RDF>
  </metadata>
  <defs
     id="defs847" />
  <sodipodi:namedview
     inkscape:current-layer="svg843"
     inkscape:window-maximized="0"
     inkscape:window-y="23"
     inkscape:window-x="-68"
     inkscape:cy="560"
     inkscape:cx="400"
     inkscape:zoom="0.35"
     showgrid="false"
     id="namedview845"
     inkscape:window-height="791"
     inkscape:window-width="1440"
     inkscape:pageshadow="2"
     inkscape:pageopacity="0"
     guidetolerance="10"
     gridtolerance="10"
     objecttolerance="10"
     borderopacity="1"
     inkscape:document-rotation="0"
     bordercolor="#666666"
     pagecolor="#ffffff" />
  <g
     id="g836">
    <title
       id="title833">background</title>
    <rect
       x="-1"
       y="-1"
       width="582"
       height="402"
       id="canvas_background"
       fill="none" />
  </g>
  <g
     style="fill:#cc5803;fill-opacity:1"
     id="g841">
    <title
       style="fill-opacity:1.0"
       id="title838">Layer 1</title>
    <path
       style="fill:#cc5803;fill-opacity:1"
       d="m25.023,2.772c0,-0.624 -0.506,-1.128 -1.129,-1.128l-14.875,0c-0.623,0 -1.128,0.504 -1.128,1.128l0,26.458c0,0.622 0.505,1.127 1.128,1.127l14.875,0c0.623,0 1.129,-0.505 1.129,-1.127l0,-26.458zm-8.574,26.396c-0.733,0 -1.328,-0.594 -1.328,-1.327c0,-0.731 0.595,-1.325 1.328,-1.325c0.732,0 1.326,0.594 1.326,1.325c0,0.733 -0.593,1.327 -1.326,1.327zm5.835,-5.649l-11.655,0l0,-18.174l11.655,0l0,18.174z"
       fill="#565656"
       id="svg_1" />
  </g>
</svg>
